<svg width="18" height="18" viewBox="0 0 18 18" fill="none" xmlns="http://www.w3.org/2000/svg">
<g clip-path="url(#clip0)">
<path d="M5.79555 7.63197C5.95953 8.69787 6.78318 10.0545 8.13605 10.5315C8.69136 10.7253 9.29885 10.729 9.85416 10.5278C11.1847 10.047 12.0344 8.69414 12.2021 7.63197C12.381 7.61707 12.6158 7.36736 12.8692 6.46918C13.2158 5.24303 12.8469 5.06041 12.5338 5.09022C12.5934 4.92251 12.6382 4.75107 12.668 4.58709C13.1972 1.40804 11.6319 1.29996 11.6319 1.29996C11.6319 1.29996 11.371 0.800551 10.689 0.424133C10.2306 0.152069 9.59328 -0.0566378 8.75472 0.0141734C8.48266 0.0253542 8.2255 0.0812578 7.98325 0.159523C7.67392 0.263876 7.39067 0.41668 7.13351 0.595571C6.82045 0.793097 6.5223 1.03907 6.26141 1.31859C5.84773 1.74346 5.47876 2.29131 5.3185 2.97334C5.18434 3.48393 5.21415 4.01687 5.32596 4.59082C5.35577 4.75853 5.4005 4.92624 5.46013 5.09395C5.14707 5.06413 4.7781 5.24675 5.1247 6.47291C5.38186 7.36736 5.61666 7.61707 5.79555 7.63197Z" fill="#E5E5E5"/>
<path d="M15.1463 11.8022C13.2419 11.3177 11.6952 10.2294 11.6952 10.2294L10.4877 14.0495L10.2603 14.7688L10.2566 14.7576L10.0591 15.3688L9.42179 13.5613C10.9871 11.3773 9.105 11.3996 9.00065 11.4034C8.8963 11.3996 7.01421 11.3773 8.57951 13.5613L7.94221 15.3688L7.74468 14.7576L7.74095 14.7688L7.51361 14.0495L6.30237 10.2294C6.30237 10.2294 4.7557 11.3177 2.85125 11.8022C1.4313 12.1637 1.36421 13.8035 1.42012 14.6122C1.42012 14.6122 1.50211 15.7117 1.5841 16.1962C1.5841 16.1962 4.35692 17.9963 9.00065 18C13.6444 18 16.4172 16.1962 16.4172 16.1962C16.4992 15.7117 16.5812 14.6122 16.5812 14.6122C16.6334 13.8035 16.5663 12.1637 15.1463 11.8022Z" fill="#E5E5E5"/>
</g>
<defs>
<clipPath id="clip0">
<rect width="18" height="18" fill="white"/>
</clipPath>
</defs>
</svg>
