<svg width="18" height="18" viewBox="0 0 18 18" fill="none" xmlns="http://www.w3.org/2000/svg">
<path d="M13.6848 11.9073C13.0968 11.3268 12.3626 11.3268 11.7783 11.9073C11.3326 12.3493 10.8869 12.7913 10.4486 13.2408C10.3288 13.3644 10.2276 13.3906 10.0815 13.3082C9.79313 13.1509 9.48599 13.0235 9.20881 12.8512C7.91657 12.0384 6.83408 10.9934 5.8752 9.81728C5.3995 9.23297 4.97625 8.60745 4.68034 7.90327C4.62041 7.76093 4.63165 7.66729 4.74777 7.55118C5.19349 7.12043 5.62799 6.67845 6.06623 6.23646C6.67676 5.62218 6.67676 4.90302 6.06248 4.28499C5.71414 3.9329 5.36579 3.5883 5.01745 3.23621C4.65787 2.87663 4.30204 2.51331 3.93871 2.15747C3.35065 1.58439 2.6165 1.58439 2.03218 2.16122C1.58271 2.6032 1.15196 3.05642 0.694993 3.49091C0.271737 3.8917 0.0582363 4.38238 0.0132888 4.95546C-0.0578782 5.88812 0.170605 6.76834 0.492729 7.62609C1.15196 9.40152 2.15579 10.9784 3.37312 12.4242C5.01745 14.3795 6.98016 15.9264 9.27623 17.0426C10.31 17.5445 11.3813 17.9303 12.5462 17.994C13.3477 18.0389 14.0444 17.8367 14.6025 17.2112C14.9846 16.7842 15.4153 16.3946 15.8198 15.9863C16.4191 15.3795 16.4229 14.6454 15.8273 14.0461C15.1157 13.3307 14.4003 12.619 13.6848 11.9073Z" fill="#E5E5E5"/>
<path d="M12.9694 8.92209L14.3516 8.68611C14.1343 7.41634 13.535 6.26644 12.6248 5.3525C11.6622 4.38988 10.4449 3.78308 9.10395 3.5958L8.90918 4.98543C9.94672 5.13151 10.8906 5.59971 11.636 6.34509C12.3402 7.04927 12.8009 7.94073 12.9694 8.92209Z" fill="#E5E5E5"/>
<path d="M15.1307 2.9141C13.5351 1.31846 11.5162 0.310887 9.28755 0L9.09277 1.38963C11.018 1.65931 12.7635 2.53205 14.1419 3.90669C15.4491 5.21392 16.3069 6.86574 16.6177 8.68237L17.9999 8.4464C17.6366 6.34135 16.644 4.43108 15.1307 2.9141Z" fill="#E5E5E5"/>
</svg>
