<svg width="18" height="18" viewBox="0 0 18 18" fill="none" xmlns="http://www.w3.org/2000/svg">
<g clip-path="url(#clip0)">
<path d="M15.167 3.11345H2.83295C1.89576 3.0512 0.996049 3.49152 0.470215 4.26977C0.659079 4.42394 0.855653 4.58197 1.08692 4.74771C4.09333 6.94856 10.1177 9.85476 16.9091 4.72844C17.1134 4.57426 17.3216 4.41623 17.5258 4.24664C16.9742 3.50347 16.0919 3.07963 15.167 3.11345Z" fill="#E5E5E5"/>
<path d="M17.865 4.97511C17.6363 5.16012 17.4077 5.33742 17.179 5.50701C14.3344 7.59224 11.5978 8.33613 9.1503 8.33613C5.58885 8.33613 2.6364 6.77125 0.820985 5.49545C0.570451 5.31815 0.343042 5.14856 0.13876 4.99053C0.0463513 5.30206 -0.000383073 5.62534 2.36475e-06 5.95027V12.0595C2.36475e-06 13.3661 0.743897 14.8924 2.83297 14.8924H15.167C16.4736 14.8924 18 14.1485 18 12.0595V5.94641C18.0016 5.61788 17.9562 5.29078 17.865 4.97511Z" fill="#E5E5E5"/>
</g>
<defs>
<clipPath id="clip0">
<rect width="18" height="18" fill="white"/>
</clipPath>
</defs>
</svg>
