<svg width="24" height="24" viewBox="0 0 24 24" fill="none" xmlns="http://www.w3.org/2000/svg">
<path d="M12 0C7.34039 0 3.54965 3.85031 3.54965 8.58277V15.4175C3.54965 20.1499 7.34039 24 12 24C16.6593 24 20.4503 20.1616 20.4503 15.4437V8.58277C20.4503 3.85031 16.6593 0 12 0ZM18.8609 15.4437C18.8609 19.2853 15.7833 22.4106 12 22.4106C8.21695 22.4106 5.13909 19.2734 5.13909 15.4172V8.58277C5.13909 4.72659 8.21695 1.58939 12 1.58939C15.7833 1.58939 18.8609 4.72659 18.8609 8.58277V15.4437Z" fill="white" fill-opacity="0.3"/>
<path d="M12 6.56953C11.5611 6.56953 11.2053 6.92532 11.2053 7.36425V10.1457C11.2053 10.5847 11.5611 10.9404 12 10.9404C12.4389 10.9404 12.7947 10.5847 12.7947 10.1457V7.36425C12.7947 6.92532 12.4389 6.56953 12 6.56953Z" fill="white" fill-opacity="0.3"/>
</svg>
